<svg width="34" height="34" viewBox="0 0 34 34" fill="none" xmlns="http://www.w3.org/2000/svg">
<path fill-rule="evenodd" clip-rule="evenodd" d="M14.8488 2.99481C15.5543 2.88715 16.2782 2.83331 17.0007 2.83331C24.8122 2.83331 31.1674 9.18848 31.1674 17C31.1674 24.8115 24.8122 31.1666 17.0007 31.1666C9.18921 31.1666 2.83405 24.8115 2.83405 17C2.83405 12.5686 4.84996 8.4759 8.36188 5.77006C8.81238 5.42298 9.46121 5.50798 9.80688 5.95706C10.1554 6.40756 10.069 7.05356 9.61988 7.40348C6.61513 9.71406 4.89388 13.2132 4.89388 17C4.89388 23.6753 10.324 29.1068 17.0007 29.1068C23.676 29.1068 29.1061 23.6753 29.1061 17C29.1061 10.3246 23.676 4.89315 17.0007 4.89315C16.3816 4.89315 15.7625 4.9399 15.1605 5.03198C14.5995 5.11698 14.0739 4.73165 13.9875 4.16923C13.894 3.60398 14.2864 3.08123 14.8488 2.99481ZM16.9996 20.9584C16.7177 20.9584 16.4471 20.8465 16.2473 20.6453L11.3301 15.7068C10.915 15.2903 10.9164 14.6174 11.3329 14.2038C11.7494 13.7901 12.4209 13.7901 12.8346 14.2066L16.9996 18.39L21.1646 14.2066C21.5782 13.7901 22.2512 13.7901 22.6677 14.2038C23.0827 14.6174 23.0842 15.2903 22.6705 15.7068L17.7518 20.6453C17.5535 20.8465 17.2829 20.9584 16.9996 20.9584Z" fill="url(#paint0_linear)"/>
<defs>
<linearGradient id="paint0_linear" x1="17.0007" y1="2.83331" x2="17.0007" y2="31.1666" gradientUnits="userSpaceOnUse">
<stop stop-color="#FA8F13"/>
<stop offset="1" stop-color="#131587"/>
</linearGradient>
</defs>
</svg>
