<svg width="1440" height="805" viewBox="0 0 1440 805" fill="none" xmlns="http://www.w3.org/2000/svg">
<ellipse opacity="0.03" cx="836.393" cy="523.385" rx="129.322" ry="442.39" transform="rotate(68.6836 836.393 523.385)" fill="#FA8F12"/>
<ellipse opacity="0.02" rx="100.294" ry="247.363" transform="matrix(-0.221827 0.975086 0.975086 0.221827 1197.73 86.9175)" fill="#FA8F12"/>
<path d="M1121.74 312.151C1123.25 315.79 1125.26 319.144 1127.66 322.147L1124.14 329.533L1131.25 334.868L1138.36 340.204L1144.47 334.755C1148.02 336.22 1151.8 337.208 1155.72 337.645L1158.45 345.353L1167.25 344.097L1176.05 342.842L1176.52 334.677C1180.15 333.161 1183.51 331.154 1186.51 328.753L1193.9 332.276L1199.23 325.165L1204.57 318.052L1199.12 311.947C1200.58 308.392 1201.57 304.612 1202.01 300.693L1209.72 297.962L1208.46 289.162L1207.21 280.362L1199.04 279.898C1197.53 276.259 1195.52 272.905 1193.12 269.902L1196.64 262.516L1189.53 257.181L1182.42 251.845L1176.31 257.294C1172.76 255.829 1168.98 254.841 1165.06 254.405L1162.33 246.696L1153.53 247.952L1144.73 249.208L1144.26 257.372C1140.62 258.888 1137.27 260.893 1134.27 263.296L1126.88 259.773L1121.55 266.884L1116.21 273.995L1121.66 280.099C1120.19 283.655 1119.21 287.435 1118.77 291.353L1111.06 294.084L1112.32 302.885L1113.57 311.685L1121.74 312.151ZM1155.99 265.182C1173.02 262.751 1188.8 274.585 1191.23 291.618C1193.66 308.651 1181.83 324.429 1164.8 326.862C1147.76 329.293 1131.98 317.459 1129.55 300.426C1127.12 283.393 1138.95 267.615 1155.99 265.182Z" fill="url(#paint0_linear)"/>
<path d="M1204.34 258.515C1204.91 259.877 1205.66 261.132 1206.56 262.257L1205.24 265.023L1207.9 267.02L1210.56 269.017L1212.85 266.977C1214.18 267.527 1215.6 267.895 1217.07 268.059L1218.09 270.946L1221.38 270.475L1224.68 270.003L1224.85 266.947C1226.21 266.38 1227.47 265.628 1228.59 264.728L1231.36 266.047L1233.36 263.384L1235.35 260.721L1233.31 258.434C1233.86 257.103 1234.23 255.686 1234.4 254.221L1237.28 253.197L1236.81 249.901L1236.34 246.605L1233.28 246.431C1232.72 245.07 1231.97 243.814 1231.07 242.689L1232.38 239.923L1229.72 237.926L1227.06 235.929L1224.77 237.969C1223.44 237.419 1222.02 237.051 1220.56 236.887L1219.54 234L1216.24 234.472L1212.95 234.943L1212.77 237.999C1211.41 238.567 1210.15 239.318 1209.03 240.218L1206.26 238.899L1204.27 241.562L1202.27 244.225L1204.31 246.512C1203.76 247.843 1203.39 249.261 1203.23 250.726L1200.34 251.747L1200.81 255.043L1201.28 258.338L1204.34 258.515ZM1217.16 240.924C1223.54 240.014 1229.45 244.447 1230.36 250.824C1231.27 257.204 1226.84 263.112 1220.46 264.022C1214.08 264.932 1208.17 260.499 1207.26 254.122C1206.35 247.745 1210.78 241.837 1217.16 240.924Z" fill="url(#paint1_linear)"/>
<path d="M1055.57 388.732H1053.88V565.283H1055.57V388.732Z" fill="#F3F3F3"/>
<path d="M1072.87 366.978H1054.73V371.58H1072.87V366.978Z" fill="white"/>
<path d="M1069.24 375.484H1054.73V380.086H1069.24V375.484Z" fill="white"/>
<path d="M1074.6 575.74H1055.57V581.875H1074.6V575.74Z" fill="white"/>
<path d="M1124.6 327.175C1124.6 327.175 1161.43 370.831 1138.07 399.1C1114.71 427.37 1108.29 399.653 1108.29 399.653C1108.29 399.653 1094.31 402.247 1118.52 366.89C1129.93 350.224 1124.6 327.175 1124.6 327.175Z" fill="url(#paint2_linear)"/>
<path d="M1205.31 293.111C1205.31 293.111 1232.66 333.484 1185.04 379.989C1137.41 426.495 1140.96 454.232 1140.96 454.232C1140.96 454.232 1092.27 358.922 1205.31 293.111Z" fill="url(#paint3_linear)"/>
<path d="M1132.06 436.69C1112.08 438.493 1135.27 384.47 1166.48 370.367C1197.7 356.264 1224.11 357.459 1242.36 342.579C1242.36 342.579 1230.45 427.811 1132.06 436.69Z" fill="url(#paint4_linear)"/>
<path d="M888.36 388.732H886.678V565.283H888.36V388.732Z" fill="url(#paint5_linear)"/>
<path d="M1008.01 388.732H1006.33V565.283H1008.01V388.732Z" fill="#F3F3F3"/>
<path d="M1127.66 388.732H1125.98V565.283H1127.66V388.732Z" fill="#F3F3F3"/>
<path d="M916.175 366.978H887.518V371.58H916.175V366.978Z" fill="#E0E0E0"/>
<path d="M928.168 375.484H887.518V380.086H928.168V375.484Z" fill="#E0E0E0"/>
<path d="M1039.52 366.978H1005.88V371.58H1039.52V366.978Z" fill="white"/>
<path d="M1027.39 375.484H1005.88V380.086H1027.39V375.484Z" fill="white"/>
<path d="M1148.51 366.978H1127.66V371.58H1148.51V366.978Z" fill="white"/>
<path d="M1151.96 375.484H1127.66V380.086H1151.96V375.484Z" fill="white"/>
<path d="M1026.2 575.74H1007.17V581.875H1026.2V575.74Z" fill="white"/>
<path d="M1146.69 575.74H1127.66V581.875H1146.69V575.74Z" fill="white"/>
<path d="M1351 432.804V443.35C1342.14 436.294 1333.43 430.956 1324.8 427.143C1268.79 402.384 1216.52 441.653 1154.39 489.162C1149.83 492.652 1145.41 495.657 1141.13 498.227C1126.21 507.178 1112.87 510.83 1100.64 510.83C1088.93 510.83 1078.26 507.481 1068.2 502.239C1054.61 495.145 1042.15 484.59 1029.86 474.168C1013.64 460.418 996.818 446.355 977.397 439.423C918.119 418.257 887.792 456.901 887.518 457.241V445.493C887.84 445.084 893.244 438.067 908.901 431.354C923.145 425.247 947.05 420.383 980.022 431.849C1000.91 439.113 1018.27 453.829 1035.04 468.054C1053.16 483.415 1069.96 497.649 1089.41 501.737H1089.42C1098.14 503.568 1107.4 503.348 1117.56 500.257C1127.29 497.309 1137.85 491.731 1149.53 482.79C1188.19 453.232 1224.63 425.048 1260.5 414.76C1283.57 408.131 1307.28 409.061 1330.55 420.212C1337.42 423.492 1344.25 427.673 1351 432.804Z" fill="url(#paint6_linear)"/>
<path d="M823.96 454.409H818.211V479.237H823.96V454.409Z" fill="#E0E0E0"/>
<path d="M838.237 444.323H832.488V479.234H838.237V444.323Z" fill="#E0E0E0"/>
<path d="M852.514 439.063H846.765V479.237H852.514V439.063Z" fill="#E0E0E0"/>
<path d="M866.793 436.869H861.044V479.237H866.793V436.869Z" fill="#E0E0E0"/>
<path d="M823.96 463.661H818.211V479.237H823.96V463.661Z" fill="url(#paint7_linear)"/>
<path d="M838.237 457.334H832.488V479.237H838.237V457.334Z" fill="url(#paint8_linear)"/>
<path d="M852.514 454.031H846.765V479.237H852.514V454.031Z" fill="url(#paint9_linear)"/>
<path d="M866.793 452.656H861.044V479.237H866.793V452.656Z" fill="url(#paint10_linear)"/>
<path d="M971.745 590.92H1151.73C1160.08 590.92 1166.85 584.152 1166.85 575.803V327.906C1166.85 319.557 1160.08 312.789 1151.73 312.789H971.745C963.396 312.789 956.628 319.557 956.628 327.906V575.803C956.631 584.152 963.399 590.92 971.745 590.92Z" fill="url(#paint11_linear)"/>
<path d="M1154.41 282.185H979.22C973.615 282.185 969.071 286.729 969.071 292.334V579.167H1154.41V282.185H1154.41Z" fill="#F5F5F5"/>
<path d="M1137.14 337.786H1082.49V344.698H1137.14V337.786Z" fill="url(#paint12_linear)"/>
<path d="M1132.66 366.761H1082.49V373.673H1132.66V366.761Z" fill="url(#paint13_linear)"/>
<path d="M1125.9 352.272H1082.49V359.184H1125.9V352.272Z" fill="url(#paint14_linear)"/>
<path d="M1023.86 382.113C1017.65 382.113 1011.66 380.822 1006.07 378.278C990.726 371.305 980.813 355.916 980.813 339.069C980.813 315.334 1000.12 296.023 1023.86 296.023C1047.59 296.023 1066.91 315.334 1066.91 339.069C1066.91 355.916 1056.99 371.305 1041.65 378.278C1036.05 380.822 1030.06 382.113 1023.86 382.113ZM1023.86 298.295C1001.37 298.295 983.083 316.587 983.083 339.069C983.083 355.026 992.473 369.603 1007 376.21C1012.31 378.62 1017.97 379.843 1023.85 379.843C1029.73 379.843 1035.4 378.62 1040.7 376.21C1055.24 369.606 1064.63 355.026 1064.63 339.069C1064.63 316.587 1046.34 298.295 1023.86 298.295Z" fill="url(#paint15_linear)"/>
<path d="M1043.6 399.441H980.811V405.604H1043.6V399.441Z" fill="#E0E0E0"/>
<path d="M1043.6 416.021H980.811V422.183H1043.6V416.021Z" fill="#E0E0E0"/>
<path d="M1043.6 432.603H980.811V438.765H1043.6V432.603Z" fill="#E0E0E0"/>
<path d="M1066.9 399.441H1056.42V405.604H1066.9V399.441Z" fill="#4E51E4"/>
<path d="M1066.9 416.021H1056.42V422.183H1066.9V416.021Z" fill="#4E51E4"/>
<path d="M1066.9 432.603H1056.42V438.765H1066.9V432.603Z" fill="#4E51E4"/>
<path d="M1351 501.848V510.391C1341.99 512.239 1333.63 512.829 1324.66 512.829C1289.24 512.829 1258.22 498.292 1226.24 482.447C1224.53 481.594 1222.8 480.74 1221.07 479.877C1179.32 459.109 1136.15 437.641 1078.62 443.521C1041.89 447.276 1018.83 462.241 998.491 475.432C980.066 487.389 962.654 497.897 939.072 498.787C900.961 500.237 887.733 483.985 887.514 482.989V472.557C887.562 472.736 895.792 490.773 938.303 490.773H939.035C960.287 490.66 975.961 480.485 994.121 468.707C1015.23 455.014 1039.15 439.499 1077.81 435.545C1137.63 429.428 1181.86 451.419 1224.64 472.698C1228.92 474.821 1233.17 476.937 1237.43 479.005C1273.44 496.53 1308.93 510.792 1351 501.848Z" fill="url(#paint16_radial)"/>
<path d="M1188.47 583.739H1100.7C1090.3 583.739 1081.86 575.302 1081.86 564.895V412.077C1081.86 401.67 1090.3 393.233 1100.7 393.233H1188.47C1198.88 393.233 1207.32 401.67 1207.32 412.077V564.895C1207.31 575.302 1198.88 583.739 1188.47 583.739Z" fill="#F5F5F5"/>
<path d="M1192.65 421.568C1189.58 412.972 1181.36 407.692 1172.7 407.951C1170.6 408.014 1168.48 408.403 1166.4 409.147C1160.09 411.403 1155.57 416.426 1153.71 422.362C1152.42 426.475 1152.41 431.026 1153.98 435.399C1154.13 435.833 1154.3 436.261 1154.48 436.68C1155.3 438.574 1156.38 440.286 1157.66 441.791C1163.04 448.108 1171.95 450.778 1180.23 447.82C1190.91 444 1196.47 432.247 1192.65 421.568ZM1178.5 442.981C1172.3 445.2 1165.61 443.198 1161.58 438.463C1160.62 437.333 1159.81 436.049 1159.2 434.63C1159.06 434.317 1158.93 433.997 1158.82 433.669C1157.64 430.391 1157.65 426.979 1158.62 423.895C1160.01 419.445 1163.4 415.678 1168.13 413.988C1169.69 413.431 1171.28 413.138 1172.86 413.09C1179.35 412.894 1185.51 416.853 1187.81 423.3C1190.68 431.304 1186.5 440.117 1178.5 442.981Z" fill="#E0E0E0"/>
<path d="M1158.61 423.893L1153.71 422.36C1155.57 416.424 1160.09 411.401 1166.4 409.144C1168.48 408.4 1170.6 408.012 1172.7 407.949L1172.85 413.088C1171.28 413.136 1169.69 413.426 1168.13 413.986C1163.4 415.675 1160.01 419.442 1158.61 423.893Z" fill="#22249C"/>
<path d="M1159.19 434.627L1154.48 436.68C1154.3 436.261 1154.13 435.835 1153.98 435.399C1152.41 431.026 1152.42 426.475 1153.71 422.362L1158.62 423.895C1157.65 426.979 1157.65 430.391 1158.82 433.669C1158.93 433.994 1159.06 434.315 1159.19 434.627Z" fill="#4E51E4"/>
<path d="M1157.66 441.791C1156.38 440.286 1155.3 438.573 1154.48 436.68L1159.19 434.627C1159.81 436.047 1160.62 437.333 1161.58 438.46L1157.66 441.791Z" fill="#6063FF"/>
<path d="M1173.13 540.73H1162.06V577.026H1173.13V540.73Z" fill="url(#paint17_linear)"/>
<path d="M1156.68 550.91H1145.61V577.026H1156.68V550.91Z" fill="url(#paint18_linear)"/>
<path d="M1189.1 523.909H1178.03V577.026H1189.1V523.909Z" fill="url(#paint19_linear)"/>
<path d="M1098.62 536.991L1097.66 536.252L1115.7 512.781L1137.96 513.989L1154.75 487.253L1172.83 485.387L1183.7 463.893L1184.78 464.44L1173.62 486.527L1155.46 488.4L1138.61 515.237L1116.27 514.027L1098.62 536.991Z" fill="#46BBED"/>
<path d="M1132.74 420.279H1101.26C1099.27 420.279 1097.66 418.668 1097.66 416.681C1097.66 414.694 1099.27 413.083 1101.26 413.083H1132.74C1134.72 413.083 1136.33 414.694 1136.33 416.681C1136.33 418.668 1134.72 420.279 1132.74 420.279Z" fill="#4E51E4"/>
<path d="M1132.74 432.835H1101.26C1099.27 432.835 1097.66 431.223 1097.66 429.236C1097.66 427.249 1099.27 425.638 1101.26 425.638H1132.74C1134.72 425.638 1136.33 427.249 1136.33 429.236C1136.33 431.223 1134.72 432.835 1132.74 432.835Z" fill="#E0E0E0"/>
<path d="M1132.74 445.389H1101.26C1099.27 445.389 1097.66 443.778 1097.66 441.791C1097.66 439.804 1099.27 438.193 1101.26 438.193H1132.74C1134.72 438.193 1136.33 439.804 1136.33 441.791C1136.33 443.778 1134.72 445.389 1132.74 445.389Z" fill="#E0E0E0"/>
<path d="M844.197 520.87H856.871L852.99 512.827H840.319L844.197 520.87Z" fill="url(#paint20_linear)"/>
<path d="M838.267 520.87H841.288L837.409 512.827H834.388L838.267 520.87Z" fill="url(#paint21_linear)"/>
<path d="M1059.31 262.164H1084.4V257.62H1059.31V262.164Z" fill="url(#paint22_linear)"/>
<path d="M1059.31 256.354H1084.4V255.499H1059.31V256.354Z" fill="url(#paint23_linear)"/>
<path d="M1029.47 315.483H1018.25V362.654H1029.47V315.483Z" fill="url(#paint24_linear)"/>
<path d="M1000.27 344.678V333.459H1047.44V344.678H1000.27Z" fill="url(#paint25_linear)"/>
<path d="M859.651 360.261C848.894 355.172 836.455 357.878 828.717 366.098C826.843 368.088 825.244 370.403 824.011 373.007C820.277 380.9 820.738 389.698 824.498 396.882C827.103 401.859 831.289 406.063 836.76 408.65C837.305 408.907 837.855 409.147 838.407 409.364C840.911 410.35 843.483 410.935 846.052 411.141C856.827 412.011 867.506 406.255 872.403 395.904C878.722 382.542 873.013 366.583 859.651 360.261ZM866.344 393.039C862.672 400.8 854.666 405.115 846.587 404.464C844.66 404.308 842.731 403.872 840.855 403.13C840.442 402.966 840.028 402.787 839.62 402.596C835.52 400.654 832.38 397.505 830.429 393.773C827.61 388.387 827.264 381.79 830.063 375.875C830.986 373.92 832.186 372.188 833.591 370.695C839.393 364.532 848.72 362.503 856.784 366.318C866.805 371.056 871.084 383.018 866.344 393.039Z" fill="#E0E0E0"/>
<path d="M830.427 393.773L824.494 396.882C820.737 389.698 820.275 380.9 824.007 373.008C825.24 370.403 826.839 368.088 828.713 366.098L833.589 370.693C832.185 372.186 830.987 373.92 830.062 375.872C827.263 381.79 827.611 388.387 830.427 393.773Z" fill="#22249C"/>
<path d="M840.854 403.128L838.4 409.361C837.848 409.144 837.298 408.905 836.754 408.647C831.284 406.06 827.096 401.857 824.491 396.879L830.425 393.77C832.376 397.502 835.516 400.652 839.616 402.593C840.029 402.787 840.44 402.966 840.854 403.128Z" fill="#4E51E4"/>
<path d="M846.045 411.142C843.476 410.935 840.904 410.352 838.4 409.364L840.853 403.13C842.73 403.872 844.661 404.308 846.585 404.464L846.045 411.142Z" fill="#6063FF"/>
<path d="M839.98 428.782H790V427.789H838.987V406.615H839.98V428.782Z" fill="#5D96FF"/>
<path d="M816.308 417.45H790V423.411H816.308V417.45Z" fill="#E0E0E0"/>
<path d="M977.503 515.23H936.651V517.656H977.503V515.23Z" fill="#CCCDD3"/>
<path d="M942.126 634.251H945.707V523.967H942.126V634.251Z" fill="#706865"/>
<path d="M999.506 514.544H971.111V518.006H999.506V514.544Z" fill="#CCBDB7"/>
<path d="M990.683 484.996H979.931V517.656H990.683V484.996Z" fill="#CCCDD3"/>
<path d="M1079.33 517.696H921.998V523.967H1079.33V517.696Z" fill="#CDCEEA"/>
<path d="M891.803 479.744C891.803 479.744 890.083 503.875 894.796 506.762C897.748 508.57 909.527 514.673 909.176 515.817C908.826 516.962 902.527 526 902.527 526C902.527 526 879.906 511.102 879.177 506.409C878.463 501.823 880.292 471.077 883.398 469.66C885.728 468.598 886.956 469.476 889.891 471.654C894.012 474.713 891.803 479.744 891.803 479.744Z" fill="#F5F5F5"/>
<path d="M919.635 619.192C919.635 619.192 918.931 624.074 918.843 624.808C918.755 625.542 911.019 624.377 911.019 624.377L910.393 618.564C910.393 618.564 918.669 618.504 919.635 619.192Z" fill="#424773"/>
<path d="M918.925 624.187C918.925 624.187 921.376 627.13 923.747 628.411C926.117 629.692 929.844 630.201 931.246 631.528C932.257 632.486 934.932 636.611 925.086 636.528C915.239 636.445 910.491 637.11 909.434 635.529C908.38 633.948 910.96 623.854 910.96 623.854C910.96 623.854 913.295 624.697 918.925 624.187Z" fill="#292C47"/>
<path d="M969.207 619.24C969.207 619.24 968.504 624.122 968.415 624.856C968.327 625.589 960.591 624.424 960.591 624.424L959.966 618.612C959.966 618.61 968.239 618.552 969.207 619.24Z" fill="#424773"/>
<path d="M968.498 624.235C968.498 624.235 970.949 627.178 973.32 628.459C975.69 629.742 984.415 630.794 985.817 632.123C986.828 633.081 988.512 636.939 974.656 636.578C964.812 636.321 960.061 637.161 959.005 635.58C957.951 633.999 960.53 623.905 960.53 623.905C960.53 623.905 962.731 624.8 968.498 624.235Z" fill="#292C47"/>
<path d="M894.677 534.853C894.677 534.853 922.806 539.613 929.16 540.609C935.514 541.608 969.962 550.179 974.271 552.791C977.701 554.871 972.473 604.806 971.25 623.857H957.684L956.701 566.708C940.419 567.114 928.799 562.898 916.943 564.701C905.087 566.501 895.202 569.06 887.667 558.954C887.665 558.954 887.385 537.059 894.677 534.853Z" fill="#292C47"/>
<path d="M922.404 623.903L909.181 623.086L907.892 566.708C900.882 566.882 898.479 566.438 892.808 565.75L882.132 540.935C891.489 542.806 921.466 550.366 925.463 552.791C928.892 554.872 923.624 604.852 922.404 623.903Z" fill="#292C47"/>
<path d="M907.628 429.41C907.628 429.41 917.939 426.561 921.875 434.564C925.809 442.57 924.026 457.745 918.829 459.172C913.632 460.6 906.158 458.956 904.002 453.973C901.844 448.99 900.124 441.912 900.641 437.325C901.153 432.746 904.89 430.507 907.628 429.41Z" fill="#EEA886"/>
<path d="M916.132 457.576C916.132 457.576 916.019 463.663 916.689 464.962C917.36 466.261 902.332 465.935 902.332 465.935C902.332 465.935 904.699 458.625 903.355 452.397C902.026 446.232 916.132 457.576 916.132 457.576Z" fill="#EEA886"/>
<path d="M902.548 450.092C902.548 450.092 903.353 451.726 907.241 451.461C911.129 451.197 916.263 446.504 917.915 446.085C919.567 445.667 919.665 444.726 919.665 444.726L920.54 446.28L922.232 446.537C922.232 446.537 921.082 441.834 923.589 440.177C926.095 438.521 922.461 425.182 909.775 428.399C909.775 428.399 900.092 430.172 899.964 435.578C899.83 440.982 900.667 447.228 902.548 450.092Z" fill="#3A3F47"/>
<path d="M917.482 464.806C917.482 464.806 917.439 462.327 916.317 462.087C915.193 461.85 904.504 460.38 903.122 460.923L902.529 464.196C902.529 464.198 905.19 465.835 917.482 464.806Z" fill="#E2D2CA"/>
<path d="M920.575 443.617C920.287 441.584 917.975 439.249 916.651 442.416C915.328 445.581 917.544 450.193 919.029 449.946C920.514 449.696 920.966 446.375 920.575 443.617Z" fill="#EEA886"/>
<path d="M962.258 494.107C962.253 494.104 962.248 494.104 962.24 494.104C962.316 494.137 962.329 494.142 962.258 494.107Z" fill="#323657"/>
<path d="M904.62 430.863C904.62 430.863 892.048 430.27 902.427 449.898L904.62 430.863Z" fill="#3A3F47"/>
<path d="M876.607 630.592L877.542 633.222L917.061 620.978L915.167 615.649L876.607 630.592Z" fill="#918783"/>
<path d="M918.416 576.139H913.925V619.104H918.416V576.139Z" fill="#918783"/>
<path d="M929.417 573.857H902.925V576.388H929.417V573.857Z" fill="#5E5854"/>
<path d="M956.08 630.592L955.144 633.222L915.626 620.977L917.364 615.317L956.08 630.592Z" fill="#918783"/>
<path d="M928.237 632.94V636.001L915.626 620.977L917.364 615.317L928.237 632.94Z" fill="#918783"/>
<path d="M956.081 637.945C958.121 637.945 959.775 636.291 959.775 634.251C959.775 632.211 958.121 630.557 956.081 630.557C954.041 630.557 952.387 632.211 952.387 634.251C952.387 636.291 954.041 637.945 956.081 637.945Z" fill="#BFB2AC"/>
<path d="M924.858 637.945C926.898 637.945 928.552 636.291 928.552 634.251C928.552 632.211 926.898 630.557 924.858 630.557C922.818 630.557 921.164 632.211 921.164 634.251C921.164 636.291 922.818 637.945 924.858 637.945Z" fill="#BFB2AC"/>
<path d="M876.606 637.945C878.647 637.945 880.301 636.291 880.301 634.251C880.301 632.211 878.647 630.557 876.606 630.557C874.566 630.557 872.912 632.211 872.912 634.251C872.912 636.291 874.566 637.945 876.606 637.945Z" fill="#BFB2AC"/>
<path d="M943.406 573.857H889.285C886.9 573.857 884.963 571.923 884.963 569.535V568.587C884.963 566.201 886.897 564.267 889.285 564.267H943.406C945.791 564.267 947.725 566.201 947.725 568.587V569.535C947.725 571.92 945.791 573.857 943.406 573.857Z" fill="#CECEEA"/>
<path d="M1059.2 523.967H1055.62V634.251H1059.2V523.967Z" fill="#706865"/>
<path d="M1027.42 500.728H943.192C940.811 500.728 938.882 498.799 938.882 496.419V439.539C938.882 437.159 940.811 435.23 943.192 435.23H1027.42C1029.8 435.23 1031.73 437.159 1031.73 439.539V496.419C1031.73 498.799 1029.8 500.728 1027.42 500.728Z" fill="#CCCDD3"/>
<path d="M1028.1 438.768H942.52V490.463H1028.1V438.768Z" fill="#F5F7FF"/>
<path d="M1024.29 495.342C1024.29 496.812 1022.75 498.002 1020.85 498.002C1018.94 498.002 1017.4 496.81 1017.4 495.342C1017.4 493.872 1018.94 492.682 1020.85 492.682C1022.75 492.679 1024.29 493.872 1024.29 495.342Z" fill="#D5D6DC"/>
<path d="M1004.53 517.779V516.614C1004.53 516.614 1002.89 509.365 991.302 509.365C979.71 509.365 979.945 517.779 979.945 517.779H1004.53Z" fill="#CCCDD3"/>
<path d="M979.802 510.441C979.802 510.441 982.321 510.245 983.241 509.69C984.164 509.132 989.684 505.421 990.98 506.016C992.276 506.611 1000.9 509.254 1000.6 510.514C1000.3 511.775 999.508 511.654 998.897 511.432C998.29 511.208 992.024 509.894 991.471 510.116C991.471 510.116 997.627 512.36 997.649 513.999C997.675 515.638 996.361 516.037 995.778 516.657C995.196 517.277 994.495 518.815 992.909 518.931C991.323 519.05 983.584 516.357 981.993 516.233C980.399 516.11 977.451 516.332 977.252 516.072C977.05 515.812 979.802 510.441 979.802 510.441Z" fill="#EEA886"/>
<path d="M933.96 468.243C925.931 466.831 917.481 464.806 917.481 464.806L902.528 464.195C902.528 464.195 888.806 467.216 883.4 469.657C882.888 469.889 882.885 481.899 881.478 485.049L885.959 494.502C885.959 494.502 888.549 513.228 889.083 521.556C889.33 525.379 888.387 558.505 888.387 558.505C888.387 558.505 889.731 559.168 899.936 560.293C910.141 561.418 935.639 559.887 935.801 558.682C935.962 557.476 930.863 513.8 930.637 511.538C930.291 508.066 931.64 492.026 931.64 492.026C933.562 494.608 938.464 506.273 943.575 511.821C946.581 515.086 961.463 517.086 964.267 517.179C970.372 517.383 981.512 518.599 981.837 518.004C982.097 517.645 982.808 508.116 982.11 507.884C981.499 507.68 960.815 506.49 955.515 503.678C953.575 502.65 947.781 490.011 947.781 490.011C947.781 490.011 938.39 470.235 933.96 468.243Z" fill="#DBDFF0"/>
<path d="M905.287 557.549H878.598C874.016 557.549 870.302 553.835 870.302 549.253V505.902C870.302 501.321 874.016 497.606 878.598 497.606H905.287C909.868 497.606 913.583 501.321 913.583 505.902V549.253C913.583 553.835 909.868 557.549 905.287 557.549Z" fill="#CECEEA"/>
<path d="M905.913 571.469C899.533 571.469 894.357 569.325 890.529 565.099C881.877 555.547 883.431 538.754 883.501 538.045C883.632 536.721 884.815 535.756 886.136 535.887C887.46 536.018 888.426 537.195 888.295 538.519C888.277 538.711 886.898 553.931 894.107 561.877C897.025 565.092 900.885 566.653 905.913 566.653C907.242 566.653 908.321 567.732 908.321 569.061C908.321 570.39 907.242 571.469 905.913 571.469Z" fill="#CECEEA"/>
<path d="M973.035 445.616H949.203C948.863 445.616 948.586 445.339 948.586 444.999V443.503C948.586 443.163 948.863 442.885 949.203 442.885H973.035C973.375 442.885 973.653 443.163 973.653 443.503V444.999C973.653 445.339 973.375 445.616 973.035 445.616Z" fill="#DFE1E8"/>
<path d="M973.035 451.474H949.203C948.863 451.474 948.586 451.197 948.586 450.856V449.361C948.586 449.021 948.863 448.743 949.203 448.743H973.035C973.375 448.743 973.653 449.021 973.653 449.361V450.856C973.653 451.199 973.375 451.474 973.035 451.474Z" fill="#DFE1E8"/>
<path d="M971.575 486.347H950.663C949.516 486.347 948.586 485.417 948.586 484.27V457.541C948.586 456.394 949.516 455.463 950.663 455.463H971.575C972.722 455.463 973.653 456.394 973.653 457.541V484.27C973.653 485.417 972.722 486.347 971.575 486.347Z" fill="#DFE1E8"/>
<path d="M1020.07 486.348H982.005C980.189 486.348 978.717 484.875 978.717 483.06V446.176C978.717 444.361 980.189 442.888 982.005 442.888H1020.07C1021.88 442.888 1023.36 444.361 1023.36 446.176V483.06C1023.36 484.875 1021.89 486.348 1020.07 486.348Z" fill="#DFE1E8"/>
<path d="M1133.02 468.815C1133.02 468.815 1134.68 465.214 1134.95 464.672C1135.23 464.129 1136.82 463.27 1138.71 462.793C1140.54 462.332 1143.04 461.404 1143.33 461.58C1143.61 461.759 1143.95 461.784 1144.29 462.576C1144.63 463.37 1144.48 464.228 1144.48 464.228C1144.48 464.228 1145.36 465.009 1145.09 466.051C1145.09 466.051 1145.89 466.823 1145.39 467.96C1145.39 467.96 1146.15 468.734 1145.72 469.528C1145.72 469.528 1144.24 470.365 1143.79 470.832C1143.33 471.298 1140.14 472.829 1136.86 473.827C1136.87 473.83 1133.44 473.724 1133.02 468.815Z" fill="#8E4F3A"/>
<path d="M1136.87 473.83C1136.87 473.83 1132.79 474.542 1131.41 473.747C1130.04 472.953 1131.64 468.805 1131.64 468.805L1134.22 467.247L1136.87 473.83Z" fill="#8E4F3A"/>
<path d="M1138.38 467.07C1138.38 467.07 1138.31 469.062 1138.01 469.612C1137.71 470.161 1141.77 471.019 1141.77 471.019C1141.77 471.019 1140.79 467.211 1138.38 467.07Z" fill="#5E3527"/>
<path d="M1142.82 461.755C1142.82 461.755 1138.37 463.916 1138.63 464.675C1138.89 465.434 1139.45 465.555 1139.45 465.555L1138.02 467.274C1138.02 467.274 1137.72 468.946 1139.63 468.787C1139.63 468.787 1139.18 470.32 1141.01 469.945C1141.01 469.945 1141.17 471.087 1142.04 471.062C1142.92 471.039 1145.72 469.529 1145.72 469.529C1145.72 469.529 1146.23 468.918 1145.45 467.932C1145.45 467.932 1146 466.868 1145.17 466.019C1145.17 466.019 1145.42 464.644 1144.51 463.737C1144.51 463.737 1144.61 462.206 1143.29 461.555C1143.29 461.56 1143.01 461.661 1142.82 461.755Z" fill="#7A4432"/>
<path d="M1135.09 464.589C1135.09 464.589 1138.48 464.662 1140.31 465.514C1140.73 465.708 1141.1 465.97 1141.07 466.427C1141.05 466.886 1140.36 467.433 1138.89 467.478C1137.42 467.521 1135.54 468.252 1135.54 468.252C1135.54 468.252 1134.01 467.854 1135.09 464.589Z" fill="#8E4F3A"/>
<path d="M1144.51 463.739C1144.51 463.739 1139.43 465.476 1139.09 465.895C1138.74 466.313 1138.09 464.463 1138.41 464.125C1138.73 463.787 1142.68 461.679 1143.12 461.563C1143.55 461.447 1145.04 462.465 1144.51 463.739Z" fill="#8E4F3A"/>
<path d="M1142.17 461.775C1142.17 461.775 1150.08 460.156 1150.24 461.119C1150.4 462.082 1149.63 462.244 1143.15 464.135C1136.86 465.973 1142.17 461.775 1142.17 461.775Z" fill="#8E4F3A"/>
<path d="M1087.85 623.902C1087.85 623.902 1090.37 627.672 1093.9 628.487C1097.43 629.301 1100.92 630.597 1100.94 632.826C1100.97 635.055 1090.72 636.387 1086.68 634.137C1080.65 630.781 1080.03 631.795 1079.36 630.116C1078.7 628.439 1080.17 623.953 1080.12 623.421C1080.07 622.76 1087.85 623.902 1087.85 623.902Z" fill="#353A3D"/>
<path d="M1087.46 622.041C1087.46 622.041 1087.92 623.862 1087.85 623.9C1087.78 623.938 1079.89 624.878 1080.13 623.418C1080.32 622.233 1080.59 620.944 1080.59 620.944L1087.46 622.041Z" fill="#81807E"/>
<path d="M1061.28 623.653C1061.28 623.653 1063.08 627.259 1066.15 628.487C1069.43 629.8 1072.06 631.308 1072 633.482C1071.94 635.656 1063.98 637.857 1058.19 633.686C1054.53 631.051 1053.36 631.039 1052.78 629.379C1052.19 627.72 1053.8 623.408 1053.78 622.886C1053.75 622.241 1061.28 623.653 1061.28 623.653Z" fill="#353A3D"/>
<path d="M1061.37 621.779C1061.37 621.779 1061.35 623.618 1061.28 623.653C1061.21 623.688 1053.58 624.316 1053.77 622.886C1053.93 621.752 1054.52 620.38 1054.52 620.38L1061.37 621.779Z" fill="#81807E"/>
<path d="M1089.35 511.647C1089.35 511.647 1096.44 542.914 1098.05 552.441C1099.43 560.548 1100.53 568.988 1099.87 574.84C1099.05 582.085 1088.8 619.636 1089.22 621.759C1089.65 623.882 1077 622.591 1077 622.591C1077 622.591 1086.29 580.214 1084.73 572.417C1083.58 566.642 1073.47 528.289 1071.92 530.256C1070.37 532.223 1068.45 566.453 1067.3 572.137C1066.15 577.818 1062.63 622.717 1062.63 622.717C1062.63 622.717 1054.75 623.88 1052.65 622.1C1052.65 622.1 1051.69 583.762 1052.42 573.108C1052.7 569.048 1047.66 524.429 1054.12 506.465C1057.54 496.971 1089.35 511.647 1089.35 511.647Z" fill="#2D3133"/>
<path d="M1135.64 475.371C1135.64 475.371 1111.09 480.815 1106.2 479.615C1103.94 479.06 1100.96 475.941 1098.14 472.274C1097.2 471.066 1096.29 469.801 1095.42 468.545C1095.42 468.542 1095.42 468.54 1095.42 468.54C1091.95 463.532 1089.23 458.731 1089.23 458.731C1089.23 458.731 1078.98 446.716 1087.21 441.357C1087.21 441.357 1090.19 440.238 1092.94 443.178C1095.68 446.118 1098.9 452.266 1099.62 453.834C1100.34 455.4 1110.41 469.927 1110.93 470.255C1111.45 470.582 1115.85 469.425 1119.38 469.13C1125.14 468.651 1133.76 466.409 1133.76 466.409L1135.64 475.371Z" fill="#DBDFF0"/>
<path d="M1079.51 438.677C1079.51 438.677 1090.06 440.861 1091.32 441.968C1092.68 443.148 1095.07 454.709 1095.22 457.929C1095.36 461.149 1093.94 474.602 1092.59 479.612C1091.23 484.623 1091.48 509.296 1092.34 516.238C1092.34 516.238 1071.08 522.275 1050.18 519.554C1050.18 519.554 1053.69 493.594 1052.85 486.731C1051.78 477.935 1049.2 457.675 1049.2 457.675C1049.2 457.675 1051.05 443.561 1052.92 441.988C1054.78 440.414 1067.6 438.674 1067.6 438.674H1079.51V438.677Z" fill="#BCC0CF"/>
<path d="M1075.15 406.037C1075.15 406.037 1087.84 401.34 1087.05 418.212C1086.26 435.086 1083.28 436.801 1074.93 434.443C1066.58 432.085 1065.88 421.437 1064.79 416.313C1063.7 411.189 1070.99 406.774 1075.15 406.037Z" fill="#8E4F3A"/>
<path d="M1081.17 440.962C1081.17 440.962 1078.56 442.689 1068.65 438.324C1068.65 438.324 1068.93 431.531 1066.98 425.186C1065.04 418.842 1080.28 433.646 1080.28 433.646C1080.12 433.76 1080.09 434.393 1080.18 435.278C1080.26 436.027 1080.42 436.957 1080.67 437.9C1081.23 440.021 1081.17 439.111 1081.17 440.962Z" fill="#8E4F3A"/>
<path d="M1066.55 424.685C1066.55 424.685 1066.52 420.176 1068.39 419.762C1070.26 419.346 1070.51 417.849 1070.51 417.849L1071.59 418.098C1071.59 418.098 1071.39 417.304 1073.18 416.257C1074.97 415.211 1085.65 416.131 1087 414.593C1088.34 413.055 1086.39 403.922 1083.48 403.024C1080.56 402.126 1073.78 402.21 1067.59 403.95C1067.59 403.95 1062.89 405.135 1062.54 410.667C1062.31 414.245 1065.02 422.241 1066.55 424.685Z" fill="#2D3133"/>
<path d="M1080.67 437.9C1070.83 436.246 1069.36 430.648 1069.34 430.562C1073.16 435.497 1080.18 435.28 1080.18 435.28C1080.26 436.027 1080.42 436.957 1080.67 437.9Z" fill="#633029"/>
<path d="M1080.24 443.178C1080.24 443.178 1082.03 445.823 1083.11 452.609C1084.19 459.394 1084.01 471.087 1084.01 471.087L1081.52 471.389C1081.52 471.389 1077.75 447.545 1078.4 443.39L1080.24 443.178Z" fill="#434343"/>
<path d="M1070.51 417.849C1069.95 416.361 1066.78 416.55 1067.11 418.905C1067.43 421.263 1070.05 424.894 1071.1 424.213C1072.15 423.532 1071.29 419.899 1070.51 417.849Z" fill="#8E4F3A"/>
<path d="M1091.45 441.958C1091.45 441.958 1097.45 449.893 1095.23 470.653C1091.21 508.169 1101.73 568.392 1101.73 568.392L1090.88 571.786C1090.88 571.786 1080.51 494.8 1083.15 466.858C1084.36 454.127 1087.93 449.891 1082.29 439.282C1082.29 439.285 1087.78 439.562 1091.45 441.958Z" fill="#DBDFF0"/>
<path d="M1064.67 439.111C1064.67 439.111 1081.84 456.454 1083.19 469.602C1084.53 482.749 1086.72 571.789 1086.72 571.789L1045.85 569.408C1045.85 569.408 1049.61 522.406 1050.52 516.526C1051.44 510.645 1053.34 476.886 1049.2 461.22C1046.98 452.803 1049.62 442.126 1054.7 440.961C1059.78 439.796 1064.67 439.111 1064.67 439.111Z" fill="#DBDFF0"/>
<path d="M1058.87 441.357C1058.87 441.357 1065.48 443.178 1061.85 455.314C1059 464.821 1058.61 466.861 1058.61 466.861L1043.35 463.05C1043.35 463.05 1047.83 442.169 1055.13 441.047C1055.13 441.047 1057.45 440.714 1058.87 441.357Z" fill="#DBDFF0"/>
<path d="M1108.89 505.59L1078.99 536.54L1059.12 517.345L1088.25 485.644L1108.89 505.59Z" fill="#616161"/>
<path d="M1106.07 506.205L1079.51 533.693L1061.86 516.644L1087.74 488.491L1106.07 506.205Z" fill="#F0F0FF"/>
<path d="M1099.94 501.613L1101.81 499.684L1094.68 492.79L1092.53 494.452L1099.94 501.613Z" fill="#616161"/>
<path d="M1068.65 436.445C1068.65 436.445 1073.83 439.569 1078.96 440.273L1076.23 444.623L1067.59 438.677L1068.65 436.445Z" fill="#A7AAB8"/>
<path d="M1080.67 437.9C1080.67 437.9 1080.13 439.691 1078.96 440.276L1081.52 443.846L1081.42 439.111L1080.67 437.9Z" fill="#A7AAB8"/>
<path d="M1078.96 440.276L1080.98 443.102C1080.98 443.102 1079.7 444.724 1076.94 443.496L1078.96 440.276Z" fill="#434343"/>
<path d="M1098.14 472.272V472.275C1097.2 471.067 1096.29 469.801 1095.42 468.545C1095.42 468.543 1095.42 468.54 1095.42 468.54C1095.42 468.54 1095.75 459.392 1095.46 456.764C1095.46 456.764 1098.45 466.619 1098.14 472.272Z" fill="#A7AAB8"/>
<path d="M1056 466.207C1056 466.207 1054.01 479.181 1054.15 480.013C1054.29 480.845 1045.12 477.408 1056 466.207Z" fill="#A7AAB8"/>
<path d="M1092.01 461.565H1087.19V468.921H1092.01V461.565Z" fill="#C6CAD9"/>
<path d="M1070.59 496.835C1070.59 496.835 1071.03 497.707 1071.76 498.002C1073.03 498.512 1075.06 497.705 1075.84 499.515C1076.62 501.326 1071.57 505.58 1070.3 505.802C1069.04 506.023 1067.25 503.951 1066.08 499.957C1064.91 495.962 1070.59 496.835 1070.59 496.835Z" fill="#8E4F3A"/>
<path d="M1075.49 498.948C1075.49 498.948 1077.66 500.892 1079.81 503.361C1081.7 505.529 1083.51 508.439 1083.19 508.989C1082.46 510.209 1080.71 507.483 1078.69 505.466C1076.84 503.608 1077.15 503.933 1077.15 503.933C1077.15 503.933 1077.14 503.734 1078.76 506.17C1080.51 508.787 1082.02 511.659 1081.61 512.297C1081.41 512.607 1080.6 513.366 1080.21 512.116C1080.56 512.701 1080.62 512.557 1080.39 512.736C1079.18 513.654 1076.02 510.229 1074.76 508.87C1075.72 509.922 1076.31 510.802 1075.22 510.89C1073.98 510.991 1069.72 505.938 1068.02 504.281C1066.17 502.473 1075.49 498.948 1075.49 498.948Z" fill="#8E4F3A"/>
<path d="M1059.67 442.169C1061.05 442.704 1061.57 445.162 1061 452.283C1060.43 459.404 1057.93 462.68 1056.99 464.326C1056.06 465.973 1050.91 476.127 1051.84 477.461C1052.76 478.798 1061.5 487.411 1062 488.112C1062.5 488.813 1072.26 497.639 1072.26 497.639L1067.29 504.576C1067.29 504.576 1046.24 488.133 1044.6 486.491C1042.96 484.85 1038.05 481.4 1039.86 475.666C1041.71 469.836 1045.03 456.192 1045.62 455.123C1046.2 454.056 1050.51 438.626 1059.67 442.169Z" fill="#DBDFF0"/>
<path d="M1241.35 610.019C1241.35 610.019 1240.62 611.756 1239.23 613.564C1238.22 614.89 1235.05 620.34 1233.66 620.72C1232.26 621.101 1227.96 621.86 1227.58 624.266C1227.2 626.671 1227.01 628.381 1231.25 628.573C1235.5 628.762 1238.28 629.016 1240.31 626.038C1242.34 623.063 1245.57 620.91 1245.57 620.91V628.676H1247.21C1247.21 628.676 1247.97 620.594 1248.42 620.024C1248.86 619.455 1250 613.249 1246.07 610.019C1242.14 606.789 1241.35 610.019 1241.35 610.019Z" fill="#163342"/>
<path d="M1233.66 620.72C1233.66 620.72 1237.46 621.671 1238.92 620.72C1240.37 619.77 1245.32 611.401 1246.96 610.899C1246.96 610.899 1245.38 607.674 1241.35 610.016C1241.35 610.019 1234.73 619.328 1233.66 620.72Z" fill="#EEA886"/>
<path d="M1242.35 422.713C1242.35 422.713 1234.16 439.986 1239.8 441.02C1247.54 442.437 1250.68 428.132 1250.68 428.132L1242.35 422.713Z" fill="#163342"/>
<path d="M1197.61 465.628C1197.61 465.628 1195.05 464.823 1194.84 463.305C1194.67 462.014 1193.51 460.474 1193.15 459.997C1192.68 459.362 1191.94 456.865 1191.14 457.458C1190.33 458.05 1192.15 461.629 1192.38 462.456C1192.61 463.283 1189.11 461.709 1188.24 461.926C1187.38 462.143 1185.1 468.094 1187.63 468.893C1190.16 469.693 1193.39 468.883 1193.81 469.11C1194.23 469.337 1195.63 469.766 1195.63 469.766L1197.61 465.628Z" fill="#EEA886"/>
<path d="M1188.88 461.977C1188.88 461.977 1180.97 460.038 1180.34 460.348C1179.7 460.658 1179.62 461.094 1180.36 461.306C1181.09 461.518 1187.94 463.401 1187.94 463.401C1187.94 463.401 1178.2 462.678 1177.62 462.819C1177.28 462.902 1177.08 463.734 1177.46 463.883C1177.84 464.032 1187.46 465.303 1187.46 465.303C1187.46 465.303 1178.36 464.642 1177.91 464.904C1177.52 465.134 1177.53 465.946 1178.2 466.039C1178.87 466.135 1187.28 467.224 1187.28 467.224C1187.28 467.224 1180.63 467.161 1180.38 467.605C1180.23 467.877 1180.02 468.588 1181.73 468.551C1183.45 468.513 1187.51 468.851 1187.51 468.851L1188.88 461.977Z" fill="#EEA886"/>
<path d="M1262.59 615.052C1262.59 615.052 1258.35 621.354 1256.64 622.874C1256.64 622.874 1252.84 624.268 1252.46 626.926C1252.08 629.587 1252.14 631.362 1256.64 631.488C1261.14 631.614 1264.08 630.807 1264.91 628.084C1265.73 625.36 1267.53 623.507 1267.53 623.507V629.206H1268.55C1268.55 629.206 1268.8 623.696 1268.87 622.682C1268.93 621.669 1269.59 617.773 1267.46 616.048C1265.32 614.323 1262.59 615.052 1262.59 615.052Z" fill="#163342"/>
<path d="M1265.44 493.428C1265.44 493.428 1270.8 500.396 1272.25 508.659C1273.71 516.924 1271.4 544.662 1271.46 548.747C1271.52 552.832 1275.32 562.996 1274.56 570.69C1273.8 578.383 1270.8 616.681 1270.8 616.681L1262.59 615.052C1262.59 615.052 1263.07 576.01 1262.59 572.78C1262.12 569.55 1261.17 557.777 1260.98 556.448C1260.79 555.119 1248.91 520.198 1248.91 514.239C1248.91 508.278 1252.53 483.708 1265.44 493.428Z" fill="#2D3133"/>
<path d="M1238.53 496.152C1238.53 496.152 1229.73 529.747 1228.68 534.402C1227.64 539.056 1226.12 542.894 1226.12 544.871C1226.12 549.455 1227.83 556.821 1227.83 556.821L1239 610.284H1249.65C1249.65 610.284 1243.72 578.209 1243.56 571.938C1243.4 565.652 1238.56 556.725 1239.51 554.067C1240.46 551.407 1254.8 520.725 1254.8 520.725C1254.8 520.725 1265.67 486.398 1238.53 496.152Z" fill="#2D3133"/>
<path d="M1256.64 622.874C1256.64 622.874 1260.99 625.302 1263.78 622.183C1266.15 619.55 1267.46 616.048 1267.46 616.048L1262.6 615.052L1256.64 622.874Z" fill="#EEA886"/>
<path d="M1242.16 439.058C1242.16 439.058 1238.54 439.401 1235.79 442.339C1233.05 445.276 1230.48 449.961 1229.76 451.53C1229.04 453.096 1218.97 467.62 1218.45 467.945C1217.93 468.271 1213.53 467.116 1210 466.821C1204.25 466.342 1195.64 463.409 1195.64 463.409L1194.36 469.91C1194.36 469.91 1215.53 476.741 1220.41 475.538C1226.39 474.065 1240.14 456.424 1240.14 456.424C1240.14 456.424 1250.39 444.414 1242.16 439.058Z" fill="#DBDFF0"/>
<path d="M1248.5 436.511C1248.5 436.511 1243.8 438.73 1242.16 439.058C1240.53 439.383 1234.2 447.611 1233.09 450.614C1231.98 453.618 1233.09 458.124 1235.37 463.411C1237.66 468.699 1235.51 470.462 1236.55 475.752C1237.59 481.04 1237.26 500.827 1237.06 503.764C1236.86 506.702 1267.62 511.155 1273.69 505.802C1273.69 505.802 1269.58 487.969 1264.72 482.881C1263.67 481.779 1263.78 474.446 1264.5 472.618C1265.21 470.79 1273.31 457.143 1273.31 457.143C1273.31 457.143 1273.91 443.302 1270.37 440.558C1267.3 438.175 1258.94 437.326 1257.44 436.804C1255.93 436.282 1251.57 436.055 1248.5 436.511Z" fill="#2F4563"/>
<path d="M1246.26 431.087C1246.26 431.087 1247.19 439.711 1247 442.52C1247 442.52 1251.88 447.415 1257.44 436.806C1257.44 436.806 1255.1 432.434 1256.86 426.475C1258.62 420.514 1246.26 431.087 1246.26 431.087Z" fill="#EEA886"/>
<path d="M1232.58 465.363C1232.58 465.363 1231.41 457.541 1232.65 452.785C1232.65 452.785 1232.65 456.875 1234.9 462.683L1232.58 465.363Z" fill="#AAADBA"/>
<path d="M1260.68 414.906C1260.68 414.906 1261.76 413.612 1262.16 414.916C1262.57 416.22 1261.25 420.095 1261.11 420.655C1261.11 420.655 1260.45 422.829 1260.19 422.552C1259.93 422.277 1260.68 414.906 1260.68 414.906Z" fill="#EEA987"/>
<path d="M1241.86 415.068C1241.86 415.068 1240.78 413.774 1240.38 415.078C1239.98 416.381 1241.29 420.257 1241.44 420.817C1241.44 420.817 1242.09 422.99 1242.35 422.713C1242.61 422.436 1241.86 415.068 1241.86 415.068Z" fill="#EEA987"/>
<path d="M1249.58 402.518C1249.58 402.518 1239.69 404.041 1241.14 419.624C1242.58 435.208 1251.31 433.969 1251.9 433.957C1252.48 433.944 1260.66 434.282 1261.36 415.267C1261.37 415.267 1261.69 401.204 1249.58 402.518Z" fill="#EEA987"/>
<path d="M1259.47 414.334C1259.47 414.334 1248.49 417.599 1243.23 416.555C1243.23 416.555 1242.9 418.494 1242.14 418.613C1241.39 418.731 1241 414.906 1241 414.906C1241 414.906 1240.75 402.233 1252.21 402.114C1263.67 401.996 1261.34 415.839 1261.34 415.839L1261.19 418.204C1261.19 418.209 1259.54 418.858 1259.47 414.334Z" fill="#163342"/>
<path d="M1255.79 432.469C1255.79 432.469 1252.32 435.752 1246.99 432.739C1246.99 432.739 1248.57 435.369 1251.56 435.303C1254.54 435.238 1255.79 432.469 1255.79 432.469Z" fill="#A77860"/>
<path d="M1261.19 437.558C1261.19 437.558 1257.83 447.482 1248.6 446.751C1239.38 446.022 1244.23 438.372 1244.23 438.372C1244.23 438.372 1246.53 437.053 1247.18 436.93C1247.83 436.806 1257.38 436.685 1257.38 436.685L1261.19 437.558Z" fill="#EEA886"/>
<path d="M1244.23 438.372C1244.23 438.372 1239.4 451.739 1239.4 465.363C1239.4 478.987 1239.01 501.18 1237.32 508.187C1235.64 515.195 1230.83 536.868 1230.83 536.868L1227.07 534.921C1227.07 534.921 1236.12 500.332 1236.81 497.839C1237.49 495.345 1236.29 468.994 1235.64 466.788C1234.99 464.581 1232.23 454.76 1232.66 452.037C1233.2 448.602 1236.41 443.519 1241.6 439.149L1244.23 438.372Z" fill="#DBDFF0"/>
<path d="M1259.37 437.142C1259.37 437.142 1256.36 446.759 1254.84 459.074C1253.32 471.392 1259.51 528.562 1263.67 541.54L1279.76 538.946C1279.76 538.946 1276.29 498.535 1271.59 491.179C1266.89 483.824 1265.39 477.318 1270.47 461.969C1275.54 446.62 1268.24 439.018 1268.24 439.018C1268.24 439.018 1260.78 437.301 1259.37 437.142Z" fill="#DBDFF0"/>
<path d="M1242.01 477.923L1261.52 511.72L1283.21 499.195L1264.54 464.909L1242.01 477.923Z" fill="#616161"/>
<path d="M1244.36 479.086L1261.69 509.1L1280.95 497.977L1264.38 467.529L1244.36 479.086Z" fill="#F0F0FF"/>
<path d="M1250.75 476.39L1249.53 474.282L1257.32 469.786L1258.84 471.718L1250.75 476.39Z" fill="#616161"/>
<path d="M1251.68 500.368C1251.68 500.368 1252.57 500.373 1252.96 500.184C1252.96 500.184 1253.64 499.788 1254.14 499.535C1254.3 499.457 1254.44 499.389 1254.54 499.356C1254.93 499.218 1255.85 499.036 1256.71 498.436C1257.57 497.838 1260.63 494.301 1260.63 494.301L1259.19 492.107L1258.13 489.86C1258.13 489.86 1251.71 490.274 1250.85 490.74C1250.76 490.786 1250.68 490.833 1250.61 490.886C1249.91 491.35 1249.59 491.988 1249.25 492.276C1249.12 492.382 1247.97 493.514 1248.01 493.996C1248.06 494.664 1248.37 495.105 1248.78 495.327C1248.78 495.327 1248.94 496.633 1249.59 497.241C1249.59 497.241 1249.7 498.449 1250.72 498.978C1250.71 498.978 1250.97 500.194 1251.68 500.368Z" fill="#EEA886"/>
<path d="M1264.9 439.058C1264.9 439.058 1270.83 437.361 1274.22 443.889C1277.61 450.418 1277.6 453.204 1278.05 456.394C1278.48 459.405 1280.42 467.625 1280.61 468.472C1280.81 469.322 1285.19 479.444 1283.18 482.982C1281.16 486.537 1260.65 497.004 1260.78 497.788C1260.91 498.572 1257.23 489.876 1257.23 489.876C1257.23 489.876 1265.53 485.251 1266.89 483.826C1269.09 481.514 1273.75 479.02 1272.8 476.151C1271.67 472.779 1268.29 461.407 1267.51 459.74C1266.73 458.073 1259.91 441.181 1264.9 439.058Z" fill="#DBDFF0"/>
<rect opacity="0.1" x="36" y="353" width="54" height="227" rx="10" transform="rotate(-90 36 353)" fill="#7A90C2"/>
<rect x="912.506" y="160.486" width="17.276" height="13.227" transform="rotate(-93.47 912.506 160.486)" fill="#FA8F12"/>
<rect opacity="0.3" x="735.706" y="469.373" width="67.4534" height="12.4485" transform="rotate(-114.685 735.706 469.373)" fill="#7A90C2"/>
<rect opacity="0.4" x="2.42017" y="532.449" width="42.2445" height="32.3434" transform="rotate(14.3354 2.42017 532.449)" fill="#7A90C2"/>
<defs>
<linearGradient id="paint0_linear" x1="1111.06" y1="296.023" x2="1209.72" y2="296.023" gradientUnits="userSpaceOnUse">
<stop stop-color="#A95F2F"/>
<stop offset="1" stop-color="#FA8F13"/>
</linearGradient>
<linearGradient id="paint1_linear" x1="1200.34" y1="252.472" x2="1237.28" y2="252.472" gradientUnits="userSpaceOnUse">
<stop stop-color="#A95F2F"/>
<stop offset="1" stop-color="#FA8F13"/>
</linearGradient>
<linearGradient id="paint2_linear" x1="1109.48" y1="331.769" x2="1132.72" y2="408.348" gradientUnits="userSpaceOnUse">
<stop stop-color="#40D5E6"/>
<stop offset="1" stop-color="#5577FF"/>
</linearGradient>
<linearGradient id="paint3_linear" x1="1081.54" y1="468.292" x2="1142.63" y2="242.846" gradientUnits="userSpaceOnUse">
<stop stop-color="#121483"/>
<stop offset="1" stop-color="#5C5EFA"/>
</linearGradient>
<linearGradient id="paint4_linear" x1="1054.78" y1="444.95" x2="1070.3" y2="305.258" gradientUnits="userSpaceOnUse">
<stop stop-color="#121483"/>
<stop offset="1" stop-color="#5C5EFA"/>
</linearGradient>
<linearGradient id="paint5_linear" x1="887.518" y1="557.683" x2="887.518" y2="465.168" gradientUnits="userSpaceOnUse">
<stop stop-color="#602F80"/>
<stop offset="1" stop-color="#5770FF"/>
</linearGradient>
<linearGradient id="paint6_linear" x1="887.528" y1="460.714" x2="1351.01" y2="460.714" gradientUnits="userSpaceOnUse">
<stop stop-color="#A95F2F"/>
<stop offset="1" stop-color="#FA8F13"/>
</linearGradient>
<linearGradient id="paint7_linear" x1="818.211" y1="471.448" x2="823.96" y2="471.448" gradientUnits="userSpaceOnUse">
<stop stop-color="#A95F2F"/>
<stop offset="1" stop-color="#FA8F13"/>
</linearGradient>
<linearGradient id="paint8_linear" x1="832.488" y1="468.285" x2="838.237" y2="468.285" gradientUnits="userSpaceOnUse">
<stop stop-color="#A95F2F"/>
<stop offset="1" stop-color="#FA8F13"/>
</linearGradient>
<linearGradient id="paint9_linear" x1="846.765" y1="466.633" x2="852.514" y2="466.633" gradientUnits="userSpaceOnUse">
<stop stop-color="#A95F2F"/>
<stop offset="1" stop-color="#FA8F13"/>
</linearGradient>
<linearGradient id="paint10_linear" x1="861.044" y1="465.946" x2="866.793" y2="465.946" gradientUnits="userSpaceOnUse">
<stop stop-color="#A95F2F"/>
<stop offset="1" stop-color="#FA8F13"/>
</linearGradient>
<linearGradient id="paint11_linear" x1="1057.5" y1="692.646" x2="1064.84" y2="275.645" gradientUnits="userSpaceOnUse">
<stop offset="0.15625" stop-color="#442F6B"/>
<stop offset="0.541667" stop-color="#121483"/>
<stop offset="0.901042" stop-color="#FA8F13"/>
</linearGradient>
<linearGradient id="paint12_linear" x1="1081.72" y1="341.525" x2="1136.89" y2="341.525" gradientUnits="userSpaceOnUse">
<stop stop-color="#121483"/>
<stop offset="1" stop-color="#5C5EFA"/>
</linearGradient>
<linearGradient id="paint13_linear" x1="1081.78" y1="370.501" x2="1132.42" y2="370.501" gradientUnits="userSpaceOnUse">
<stop stop-color="#121483"/>
<stop offset="1" stop-color="#5C5EFA"/>
</linearGradient>
<linearGradient id="paint14_linear" x1="1081.88" y1="356.011" x2="1125.69" y2="356.011" gradientUnits="userSpaceOnUse">
<stop stop-color="#121483"/>
<stop offset="1" stop-color="#5C5EFA"/>
</linearGradient>
<linearGradient id="paint15_linear" x1="1023.86" y1="397.714" x2="1023.86" y2="337.701" gradientUnits="userSpaceOnUse">
<stop stop-color="#484AD9"/>
<stop offset="1" stop-color="white"/>
</linearGradient>
<radialGradient id="paint16_radial" cx="0" cy="0" r="1" gradientUnits="userSpaceOnUse" gradientTransform="translate(1119.26 473.668) scale(166.19)">
<stop offset="0.1602" stop-color="#6063FF"/>
<stop offset="0.5806" stop-color="#4E51E4"/>
<stop offset="1" stop-color="#2F31A1"/>
</radialGradient>
<linearGradient id="paint17_linear" x1="1155.5" y1="580.193" x2="1176.06" y2="535.044" gradientUnits="userSpaceOnUse">
<stop stop-color="#121483"/>
<stop offset="1" stop-color="#5C5EFA"/>
</linearGradient>
<linearGradient id="paint18_linear" x1="1139.04" y1="579.305" x2="1150.65" y2="543.884" gradientUnits="userSpaceOnUse">
<stop stop-color="#121483"/>
<stop offset="1" stop-color="#5C5EFA"/>
</linearGradient>
<linearGradient id="paint19_linear" x1="1171.46" y1="581.661" x2="1208.28" y2="526.422" gradientUnits="userSpaceOnUse">
<stop stop-color="#121483"/>
<stop offset="1" stop-color="#5C5EFA"/>
</linearGradient>
<linearGradient id="paint20_linear" x1="840.319" y1="516.848" x2="856.871" y2="516.848" gradientUnits="userSpaceOnUse">
<stop stop-color="#A95F2F"/>
<stop offset="1" stop-color="#FA8F13"/>
</linearGradient>
<linearGradient id="paint21_linear" x1="834.389" y1="516.848" x2="841.288" y2="516.848" gradientUnits="userSpaceOnUse">
<stop stop-color="#A95F2F"/>
<stop offset="1" stop-color="#FA8F13"/>
</linearGradient>
<linearGradient id="paint22_linear" x1="1081.34" y1="224.406" x2="1061.52" y2="298.555" gradientUnits="userSpaceOnUse">
<stop stop-color="#FF9F55"/>
<stop offset="1" stop-color="#FFD255"/>
</linearGradient>
<linearGradient id="paint23_linear" x1="1080.35" y1="224.141" x2="1060.53" y2="298.291" gradientUnits="userSpaceOnUse">
<stop stop-color="#FF9F55"/>
<stop offset="1" stop-color="#FFD255"/>
</linearGradient>
<linearGradient id="paint24_linear" x1="1011.59" y1="366.77" x2="1042.45" y2="313.943" gradientUnits="userSpaceOnUse">
<stop stop-color="#121483"/>
<stop offset="1" stop-color="#5C5EFA"/>
</linearGradient>
<linearGradient id="paint25_linear" x1="972.289" y1="345.656" x2="972.845" y2="328.825" gradientUnits="userSpaceOnUse">
<stop stop-color="#121483"/>
<stop offset="1" stop-color="#5C5EFA"/>
</linearGradient>
</defs>
</svg>
