<svg width="154" height="32" viewBox="0 0 154 32" fill="none" xmlns="http://www.w3.org/2000/svg">
<path d="M27.8186 22.9414C26.0872 24.9683 23.7066 26.3322 21.0823 26.8005C19.2619 27.1256 17.4023 27.0056 15.6576 26.4668C15.598 26.4484 15.5336 26.4735 15.5028 26.5276L12.7965 31.2664C12.6625 31.5009 12.4622 31.6951 12.2095 31.7906C11.7551 31.9622 11.3591 32.0137 10.7417 31.9968C10.6375 31.994 10.534 31.976 10.4351 31.9428C9.79919 31.7301 9.44195 31.5172 9.00091 31.0527C8.927 30.975 8.86947 30.883 8.83133 30.7828C8.57821 30.1169 8.53255 29.6591 8.61833 28.9883C8.64485 28.7802 8.71519 28.5883 8.82117 28.4074C10.2269 26.0061 20.6391 8.21243 20.6391 8.00181C20.6391 7.77588 17.3631 8.22774 17.3631 8.22774C15.0101 8.68092 14.0361 8.88653 13.0704 10.6L8.32602 18.9593L8.10009 18.6204C7.37663 16.0547 7.43272 13.2814 8.50127 10.839C9.56983 8.39679 11.452 6.40063 13.8273 5.1906C16.2026 3.98044 18.9241 3.63152 21.5278 4.20294C24.1316 4.7745 26.4567 6.23118 28.1069 8.32473C29.7571 10.4183 30.6302 13.0194 30.5777 15.6846C30.5252 18.3499 29.5501 20.9145 27.8186 22.9414Z" fill="url(#paint0_linear_49_250)"/>
<path d="M3.32984 6.64372V9.3995C3.32984 9.69484 3.57478 9.94083 3.86854 9.94083H6.12112C6.41501 9.94083 6.65982 9.69484 6.65982 9.3995V6.64372H9.40213C9.69603 6.64372 9.94083 6.3976 9.94083 6.10238V3.83858C9.94083 3.54324 9.69603 3.29725 9.40213 3.24802H6.65982V0.541338C6.65982 0.492113 6.65982 0.492113 6.65982 0.442888C6.65982 0.393664 6.65982 0.393664 6.61086 0.344439C6.51294 0.147673 6.31709 0 6.12112 0H3.86854C3.57478 0 3.32984 0.246123 3.32984 0.541338V3.24802H0.587526C0.293763 3.24802 0.0489605 3.49401 0 3.78936C0 3.78936 0 3.78936 0 3.83858V6.10238C0 6.15161 0 6.2007 0 6.24992C0.0489605 6.49604 0.293764 6.64372 0.538567 6.64372H3.32984Z" fill="url(#paint1_linear_49_250)"/>
<path d="M33.7615 24.377V12.3815C33.7615 11.268 34.3688 10.6606 35.4824 10.6606H36.039C37.1526 10.6606 37.7599 11.268 37.7599 12.3815V24.377C37.7599 25.4905 37.1526 26.0979 36.039 26.0979H35.4824C34.3688 26.0979 33.7615 25.4905 33.7615 24.377Z" fill="#121483"/>
<path d="M44.694 26.2496C41.8091 26.2496 39.8857 24.0732 39.8857 20.2771C39.8857 16.4811 41.8091 14.3047 44.694 14.3047C46.1112 14.3047 47.579 15.0132 48.0852 16.228V16.0256C48.0852 14.9627 48.7431 14.4565 49.8061 14.4565H50.3122C51.4256 14.4565 52.0331 15.0639 52.0331 16.1773V24.3768C52.0331 25.4904 51.4256 26.0977 50.3122 26.0977H49.8061C48.7431 26.0977 48.0852 25.5916 48.0852 24.5793V24.3768C47.579 25.5409 46.0606 26.2496 44.694 26.2496ZM48.237 20.2771C48.237 18.5562 47.3766 17.4933 46.01 17.4933C44.694 17.4933 43.783 18.6069 43.783 20.2771C43.783 21.998 44.694 23.1115 46.01 23.1115C47.326 23.1115 48.237 21.998 48.237 20.2771Z" fill="#121483"/>
<path d="M60.9411 26.3002C57.6006 26.3002 56.0822 24.9842 56.0822 21.4918V17.4427H55.7785C54.9687 17.4427 54.5132 16.886 54.5132 15.975C54.5132 15.0133 54.9687 14.5071 55.7785 14.5071H56.1328V13.8998C56.1328 12.8874 56.5883 12.3813 57.803 12.1283L58.2586 12.027C59.6251 11.7233 60.1312 12.2296 60.1312 13.4442V14.5071H61.346C62.6113 14.5071 63.0669 15.0133 63.0669 15.975C63.0669 16.9366 62.6113 17.4427 61.346 17.4427H60.03V21.1881C60.03 22.6054 60.5362 23.1621 61.5991 23.2634C62.4596 23.3646 62.9657 23.7695 63.0163 24.6299C63.0163 25.541 62.6113 26.199 61.4979 26.3002C61.346 26.2496 61.1436 26.3002 60.9411 26.3002Z" fill="#121483"/>
<path d="M70.5071 26.2496C66.8122 26.2496 64.3828 23.9213 64.3828 20.2771C64.3828 16.6836 66.8629 14.3047 70.4564 14.3047C73.8476 14.3047 76.0239 16.1773 76.2771 19.3661C76.3783 20.5302 75.8215 21.087 74.5562 21.087H68.3307C68.3813 22.6054 69.2923 23.5164 70.7601 23.5164C71.57 23.5164 72.1773 23.2633 72.7341 22.8584C73.2909 22.4028 73.6452 22.2004 74.5056 22.4028L74.8093 22.4535C75.9734 22.7066 76.1253 23.3645 75.3661 24.3263C74.4044 25.4904 72.6835 26.2496 70.5071 26.2496ZM70.5071 16.8353C69.343 16.8353 68.4319 17.5945 68.3307 18.8599H72.6329C72.5822 17.5945 71.7219 16.8353 70.5071 16.8353Z" fill="#121483"/>
<path d="M82.8063 26.2496C79.9214 26.2496 77.998 24.0732 77.998 20.2771C77.998 16.4811 79.9214 14.3047 82.8063 14.3047C84.2236 14.3047 85.6913 15.0132 86.1974 16.228V16.0256C86.1974 14.9627 86.8554 14.4565 87.9183 14.4565H88.4245C89.5379 14.4565 90.1454 15.0639 90.1454 16.1773V24.3768C90.1454 25.4904 89.5379 26.0977 88.4245 26.0977H87.9183C86.8554 26.0977 86.1974 25.5916 86.1974 24.5793V24.3768C85.6913 25.5409 84.2236 26.2496 82.8063 26.2496ZM86.3493 20.2771C86.3493 18.5562 85.4889 17.4933 84.1223 17.4933C82.8063 17.4933 81.8952 18.6069 81.8952 20.2771C81.8952 21.998 82.8063 23.1115 84.1223 23.1115C85.4383 23.1115 86.3493 21.998 86.3493 20.2771Z" fill="#121483"/>
<path d="M102.495 14.4565C103.608 14.4565 104.215 15.0639 104.215 16.1774V24.3768C104.215 25.4903 103.608 26.0977 102.495 26.0977H101.988C100.875 26.0977 100.268 25.4903 100.268 24.478C99.7614 25.4903 98.4455 26.2496 96.8764 26.2496C93.8397 26.2496 92.5742 24.6299 92.5742 20.9857V16.228C92.5742 15.1145 93.1817 14.5071 94.2951 14.5071H94.8013C95.9147 14.5071 96.5222 15.1145 96.5222 16.228V20.5808C96.5222 22.3017 97.1295 23.0609 98.3948 23.0609C99.7615 23.0609 100.268 22.251 100.268 20.5302V16.228C100.268 15.1145 100.875 14.5071 101.988 14.5071L102.495 14.4565Z" fill="#121483"/>
<path d="M106.342 24.2756L107.961 12.9887C108.113 11.9258 108.72 11.4197 109.783 11.4197H111.707C112.719 11.4197 113.326 11.9258 113.579 12.8874L115.958 21.7955L118.337 12.8874C118.59 11.8752 119.198 11.4197 120.21 11.4197H122.133C123.196 11.4197 123.803 11.9765 123.955 12.9887L125.574 24.2756C125.726 25.4397 125.17 26.0977 124.005 26.0977H123.296C122.234 26.0977 121.627 25.5409 121.475 24.478L120.463 16.7341L118.235 24.6299C117.982 25.5916 117.375 26.0977 116.313 26.0977H115.502C114.49 26.0977 113.883 25.5916 113.579 24.6299L111.403 16.7847L110.391 24.5287C110.239 25.5916 109.631 26.1483 108.568 26.1483H107.86C106.746 26.0977 106.19 25.4397 106.342 24.2756Z" fill="#121483"/>
<path d="M127.245 20.2771C127.245 16.6836 129.725 14.3047 133.319 14.3047C136.71 14.3047 138.886 16.1773 139.14 19.3661C139.24 20.5302 138.683 21.087 137.419 21.087H131.193C131.244 22.6054 132.155 23.5164 133.622 23.5164C134.432 23.5164 135.039 23.2633 135.596 22.8584C136.153 22.4028 136.507 22.2004 137.367 22.4028L137.671 22.4535C138.835 22.7066 138.987 23.3645 138.228 24.3263C137.266 25.4904 135.596 26.2496 133.369 26.2496C129.675 26.2496 127.245 23.9213 127.245 20.2771ZM133.42 16.8353C132.256 16.8353 131.344 17.5945 131.244 18.8599H135.546C135.445 17.5945 134.634 16.8353 133.42 16.8353Z" fill="#121483"/>
<path d="M140.861 20.2772C140.861 16.4813 142.783 14.3048 145.668 14.3048C147.086 14.3048 148.553 15.0134 149.06 16.2282V12.3815C149.06 11.268 149.667 10.6606 150.781 10.6606H151.286C152.4 10.6606 153.007 11.268 153.007 12.3815V24.3264C153.007 25.4399 152.4 26.0473 151.286 26.0473H150.781C149.717 26.0473 149.06 25.5411 149.06 24.7313V24.3264C148.553 25.4905 147.035 26.1991 145.668 26.1991C142.783 26.2498 140.861 24.0733 140.861 20.2772ZM149.212 20.2772C149.212 18.5564 148.351 17.4935 146.984 17.4935C145.668 17.4935 144.758 18.607 144.758 20.2772C144.758 21.9981 145.668 23.1117 146.984 23.1117C148.351 23.1117 149.212 21.9981 149.212 20.2772Z" fill="#121483"/>
<defs>
<linearGradient id="paint0_linear_49_250" x1="20.0678" y1="24.2541" x2="13.9313" y2="12.4428" gradientUnits="userSpaceOnUse">
<stop stop-color="#121483"/>
<stop offset="1" stop-color="#FA8701" stop-opacity="0.93"/>
</linearGradient>
<linearGradient id="paint1_linear_49_250" x1="-4.48139" y1="-4.58599" x2="5.25263" y2="5.10008" gradientUnits="userSpaceOnUse">
<stop stop-color="#121483"/>
<stop offset="1" stop-color="#FA8701"/>
</linearGradient>
</defs>
</svg>
